<!--?xml version="1.0" encoding="UTF-8"?-->

<svg width="1e3" height="400" xmlns="http://www.w3.org/2000/svg" xmlns:xlink="http://www.w3.org/1999/xlink" style="">
 <clipPath id="d">
  <path d="m0-1v83h55.937v236h-54.414v82h194.65v-82h-55.938v-236h54.414v-83zm554.02 1v82h55.938v236h-54.414v82h138.71v-228.16l82.656 228.08 1.68.04 81.172-228.12v228.16h140.23v-82h-55.938v-236h54.415v-82h-156.33l-64.726 182.89-65.547-182.89z" class="FUKijfOL_0"></path>
  <path id="c" d="m222.23 0v82h55.937v130h215.31v-24.928s18.011-14.042 23.75-27.367l11.523-25.855s5.352-14.472 5.352-27.405l-2.305-25.855s-3.616-21.063-9.922-27.328l-22.266-25.895s-28.333-27.367-65.859-27.367zm140.23 82h81.992v76h-81.992z" class="FUKijfOL_1"></path>
  <use transform="matrix(1 0 0 -1 0 400)" xlink:href="#c"></use>
 </clipPath>
 <path d="m0 13.683h1030v53.232h-1030m0 53.232h975v53.242h-975v53.222h975v53.222h-975m0 53.242h1030v53.242h-1030" clip-path="url(#d)" fill="none" stroke="#1f70c1" stroke-width="27.37" class="FUKijfOL_2"></path>
<style data-made-with="vivus-instant">.FUKijfOL_0{stroke-dasharray:4357 4359;stroke-dashoffset:4358;animation:FUKijfOL_draw_0 12200ms ease-in-out 0ms infinite,FUKijfOL_fade 12200ms linear 0ms infinite;}.FUKijfOL_1{stroke-dasharray:1291 1293;stroke-dashoffset:1292;animation:FUKijfOL_draw_1 12200ms ease-in-out 0ms infinite,FUKijfOL_fade 12200ms linear 0ms infinite;}.FUKijfOL_2{stroke-dasharray:8287 8289;stroke-dashoffset:8288;animation:FUKijfOL_draw_2 12200ms ease-in-out 0ms infinite,FUKijfOL_fade 12200ms linear 0ms infinite;}@keyframes FUKijfOL_draw{100%{stroke-dashoffset:0;}}@keyframes FUKijfOL_fade{0%{stroke-opacity:1;}87.70491803278688%{stroke-opacity:1;}100%{stroke-opacity:0;}}@keyframes FUKijfOL_draw_0{6.557377049180328%{stroke-dashoffset: 4358}54.91803278688525%{ stroke-dashoffset: 0;}100%{ stroke-dashoffset: 0;}}@keyframes FUKijfOL_draw_1{10.655737704918032%{stroke-dashoffset: 1292}59.01639344262295%{ stroke-dashoffset: 0;}100%{ stroke-dashoffset: 0;}}@keyframes FUKijfOL_draw_2{14.754098360655737%{stroke-dashoffset: 8288}63.114754098360656%{ stroke-dashoffset: 0;}100%{ stroke-dashoffset: 0;}}</style></svg>
