<svg viewBox="0 1 511.99963 511" xmlns="http://www.w3.org/2000/svg"><path d="m510.546875 308.695312c-18.3125-30.144531-45.945313-52.574218-78.714844-64.207031 6.582031-11.535156 11.707031-23.875 15.175781-36.742187 6.910157-25.601563 7.234376-52.757813.945313-78.53125-.886719-3.625-3.71875-6.457032-7.34375-7.339844-34.355469-8.390625-69.957031-5.082031-101.757813 9.214844-3.117187-22-9.753906-43.261719-19.65625-62.621094-13.839843-27.058594-33.742187-49.960938-57.554687-66.226562-3.402344-2.3242192-7.878906-2.3242192-11.28125 0-23.8125 16.265624-43.714844 39.167968-57.554687 66.226562-9.902344 19.359375-16.539063 40.621094-19.65625 62.621094-31.800782-14.296875-67.402344-17.601563-101.757813-9.214844-3.625.882812-6.457031 3.714844-7.34375 7.339844-6.289063 25.773437-5.964844 52.929687.945313 78.53125 3.46875 12.863281 8.59375 25.207031 15.175781 36.742187-32.769531 11.632813-60.402344 34.0625-78.714844 64.207031-1.9375 3.191407-1.9375 7.195313 0 10.382813 13.285156 21.867187 32.023437 40.160156 54.191406 52.90625 22.863281 13.148437 48.964844 20.101563 75.484375 20.101563 26.519532 0 52.621094-6.953126 75.488282-20.101563 6.804687-3.910156 13.28125-8.351563 19.382812-13.253906v143.769531c0 5.523438 4.476562 10 10 10 5.519531 0 10-4.476562 10-10v-163.09375c3.554688-4.125 6.898438-8.4375 10-12.929688 3.097656 4.492188 6.441406 8.804688 10 12.929688v125.09375c0 5.523438 4.476562 10 10 10 5.519531 0 10-4.476562 10-10v-105.769531c6.097656 4.902343 12.578125 9.34375 19.382812 13.253906 22.863282 13.148437 48.964844 20.101563 75.484376 20.101563 26.519531 0 52.621093-6.953126 75.484374-20.101563 22.171876-12.746094 40.910157-31.039063 54.191407-52.90625 1.941406-3.1875 1.941406-7.191406.003906-10.382813zm-80.695313-168.722656c7.277344 36.628906-.460937 73.730469-21.140624 103.914063-.308594.378906-.59375.777343-.847657 1.203125-4.597656 6.558594-9.800781 12.789062-15.609375 18.597656-29.902344 29.90625-70.746094 44.023438-111.984375 39.417969 15.617188-14.3125 28.878907-31.753907 38.925781-51.402344 14.203126-27.769531 21.710938-59.449219 21.710938-91.617187 0-2.582032-.066406-5.15625-.164062-7.726563 27.488281-14.066406 58.703124-18.40625 89.109374-12.386719zm-173.851562-117.167968c40.769531 30.714843 64.90625 81.488281 64.90625 137.28125 0 55.796874-24.140625 106.566406-64.90625 137.28125-40.765625-30.714844-64.90625-81.484376-64.90625-137.28125 0-55.792969 24.140625-106.566407 64.90625-137.28125zm-173.851562 117.167968c30.40625-6.023437 61.621093-1.683594 89.109374 12.386719-.097656 2.574219-.164062 5.148437-.164062 7.726563 0 32.167968 7.507812 63.847656 21.710938 91.617187 10.046874 19.648437 23.308593 37.089844 38.925781 51.402344-41.234375 4.609375-82.082031-9.511719-111.984375-39.414063-5.808594-5.8125-11.007813-12.039062-15.605469-18.597656-.257813-.429688-.542969-.832031-.855469-1.210938-20.675781-30.179687-28.410156-67.28125-21.136718-103.910156zm48.984374 232.109375c-44.324218 0-84.722656-21.640625-109.269531-58.195312 16.761719-24.945313 41.164063-43.183594 69.71875-52.132813 4.296875 5.648438 8.972657 11.027344 14.023438 16.078125 19.445312 19.445313 43.679687 33.488281 70.085937 40.613281 13.417969 3.621094 27.257813 5.433594 41.105469 5.433594 5.65625 0 11.3125-.320312 16.945313-.925781-24.84375 31.039063-62.085938 49.128906-102.609376 49.128906zm249.738282 0c-40.523438 0-77.769532-18.089843-102.613282-49.128906 5.632813.605469 11.289063.925781 16.945313.925781 13.847656 0 27.6875-1.8125 41.105469-5.433594 26.40625-7.125 50.640625-21.167968 70.085937-40.613281 5.050781-5.050781 9.726563-10.429687 14.023438-16.078125 28.554687 8.949219 52.957031 27.1875 69.71875 52.132813-24.542969 36.558593-64.945313 58.195312-109.265625 58.195312zm0 0"/><path d="m276 492.5c-2.628906 0-5.210938 1.070312-7.070312 2.929688-1.859376 1.859374-2.929688 4.4375-2.929688 7.070312 0 2.628906 1.070312 5.210938 2.929688 7.070312 1.863281 1.859376 4.441406 2.929688 7.070312 2.929688s5.210938-1.070312 7.070312-2.929688c1.859376-1.859374 2.929688-4.441406 2.929688-7.070312 0-2.632812-1.070312-5.210938-2.929688-7.070312-1.859374-1.859376-4.441406-2.929688-7.070312-2.929688zm0 0"/></svg>