<svg viewBox="0 0 512.00003 512" xmlns="http://www.w3.org/2000/svg"><path d="m297.9375 357.441406c-2.640625 0-5.210938 1.070313-7.070312 2.929688-1.859376 1.859375-2.929688 4.441406-2.929688 7.070312s1.070312 5.210938 2.929688 7.070313c1.859374 1.859375 4.441406 2.929687 7.070312 2.929687s5.210938-1.070312 7.070312-2.929687c1.859376-1.859375 2.929688-4.441407 2.929688-7.070313s-1.070312-5.210937-2.929688-7.070312c-1.859374-1.859375-4.441406-2.929688-7.070312-2.929688zm0 0"/><path d="m502 491.949219h-199.320312c3.335937-5.8125 5.253906-12.539063 5.253906-19.707031v-69.207032c0-5.519531-4.476563-10-10-10-5.523438 0-10 4.480469-10 10v69.207032c0 10.867187-8.839844 19.707031-19.707032 19.707031h-3.417968v-72.347657c3.726562-1.453124 6.367187-5.070312 6.367187-9.308593v-9.257813c0-8.316406-2.328125-16.101562-6.367187-22.738281v-47.050781c0-5.523438-4.476563-10-10-10h-33.464844c-15.421875 0-27.96875 12.546875-27.96875 27.96875s12.546875 27.96875 27.96875 27.96875h5.980469c12.902343 0 23.445312 10.300781 23.839843 23.109375h-29.828124c-28.167969 0-51.085938-22.917969-51.085938-51.085938s22.917969-51.085937 51.085938-51.085937h66.597656v32.316406c0 5.523438 4.476562 10 10 10 5.523437 0 10-4.476562 10-10v-40.953125c.058594-.449219.101562-.898437.101562-1.363281v-51.03125l48.0625-47.589844c16.605469-16.375 26.132813-39.136719 26.132813-62.457031 0-27.15625-12.882813-53.207031-34.460938-69.695313 0 0-45.132812-34.433594-69.902343-53.273437-6.042969-4.601563-14.027344-5.363281-20.832032-1.988281-.351562.175781-.699218.359374-1.039062.550781-.335938-.191407-.683594-.375-1.035156-.550781-6.804688-3.375-14.789063-2.613282-20.832032 1.988281-24.769531 18.84375-69.902344 53.273437-69.90625 53.277343-21.574218 16.484376-34.453125 42.535157-34.453125 69.691407 0 23.320312 9.523438 46.085937 26.109375 62.4375l48.082032 47.671875v43.125c-30.824219 7.773437-53.710938 35.726562-53.710938 68.929687 0 39.195313 31.890625 71.085938 71.085938 71.085938h23.472656v71.65625h-234.808594c-5.523438 0-10 4.476562-10 10 0 5.519531 4.476562 10 10 10h492c5.523438 0 10-4.480469 10-10 0-5.523438-4.476562-10-10-10zm-246-432.796875c3.027344 4.230468 6.679688 8.039062 10.878906 11.246094l44.785156 34.21875c6.941407 5.304687 11.085938 13.6875 11.085938 22.425781 0 7.503906-3.0625 14.828125-8.40625 20.097656l-11.53125 11.363281c.277344-2.0625.433594-4.164062.433594-6.304687v-3.136719c0-13.007812-5.289063-24.804688-13.824219-33.355469v-5.875c0-18.421875-14.984375-33.40625-33.40625-33.40625s-33.40625 14.984375-33.40625 33.40625v5.875c-8.539063 8.550781-13.824219 20.347657-13.824219 33.355469v3.136719c0 2.152343.15625 4.265625.4375 6.339843l-11.566406-11.398437c-5.34375-5.269531-8.40625-12.59375-8.40625-20.097656 0-8.738281 4.144531-17.125 11.085938-22.429688l44.785156-34.21875c4.195312-3.203125 7.851562-7.011719 10.878906-11.242187zm-27.214844 89.910156c0-15.015625 12.214844-27.230469 27.230469-27.230469s27.230469 12.214844 27.230469 27.230469v3.136719c0 15.015625-12.214844 27.230469-27.230469 27.230469s-27.230469-12.214844-27.230469-27.230469zm27.230469-47.230469c-4.035156 0-7.953125.507813-11.695313 1.46875 2.296876-4.097656 6.675782-6.875 11.695313-6.875s9.398437 2.777344 11.695313 6.875c-3.742188-.960937-7.660157-1.46875-11.695313-1.46875zm-86.074219 73.421875c-12.820312-12.636718-20.171875-30.210937-20.171875-48.210937 0-20.960938 9.941407-41.070313 26.589844-53.792969 0 0 44.789063-34.171875 69.644531-53.074219.039063 1.367188.355469 2.667969.890625 3.847657-.574219 1.261718-.894531 2.664062-.894531 4.140624 0 10.265626-4.871094 20.109376-13.023438 26.339844l-44.785156 34.21875c-11.863281 9.0625-18.945312 23.390625-18.945312 38.320313 0 12.824219 5.238281 25.339843 14.367187 34.339843l14.890625 14.679688c15.421875 15.203125 35.839844 23.574219 57.496094 23.574219 21.652344 0 42.070312-8.371094 57.492188-23.574219l14.890624-14.679688c9.132813-9 14.371094-21.519531 14.371094-34.339843 0-14.929688-7.085937-29.253907-18.945312-38.320313l-44.785156-34.21875c-8.15625-6.230468-13.023438-16.074218-13.023438-26.339844 0-1.476562-.320312-2.878906-.894531-4.140624.515625-1.132813.824219-2.378907.882812-3.6875.003907-.054688.003907-.109376.007813-.164063 24.808594 18.875 69.640625 53.078125 69.636718 53.074219 16.652344 12.722656 26.597657 32.835937 26.597657 53.796875 0 18-7.355469 35.574219-20.1875 48.226562l-51.042969 50.542969c-1.898438 1.878906-2.964844 4.4375-2.964844 7.105469v45.203125h-64.074218v-45.136719c0-2.667969-1.066407-5.226563-2.960938-7.101563zm57.382813 181.929688h-5.976563c-4.394531 0-7.96875-3.574219-7.96875-7.96875 0-4.394532 3.574219-7.96875 9.457032-7.96875h21.972656v19.582031c-5.359375-2.339844-11.269532-3.644531-17.484375-3.644531zm0 0"/></svg>